<?xml version="1.0" standalone="no"?>
<!DOCTYPE svg PUBLIC "-//W3C//DTD SVG 20010904//EN"
 "http://www.w3.org/TR/2001/REC-SVG-20010904/DTD/svg10.dtd">
<svg version="1.0" xmlns="http://www.w3.org/2000/svg"
 width="700.000000pt" height="700.000000pt" viewBox="0 0 700.000000 700.000000"
 preserveAspectRatio="xMidYMid meet">
<metadata>
Created by potrace 1.14, written by Peter Selinger 2001-2017
</metadata>
<g transform="translate(0.000000,700.000000) scale(0.100000,-0.100000)"
fill="#000000" stroke="none">
<path d="M3380 6447 c-46 -30 -73 -80 -73 -132 0 -62 29 -104 98 -143 102 -57
137 -85 182 -146 50 -68 88 -179 80 -232 -12 -71 -80 -124 -159 -124 -80 0
-158 75 -158 152 0 46 -26 133 -45 148 -21 17 -83 0 -202 -55 -114 -54 -166
-89 -260 -178 -189 -180 -293 -424 -293 -691 0 -324 177 -788 429 -1122 l31
-42 -192 -4 c-185 -4 -197 -5 -281 -35 -122 -43 -190 -86 -282 -178 -93 -94
-135 -160 -178 -282 -30 -83 -32 -97 -31 -228 0 -127 2 -147 27 -220 16 -44
44 -106 63 -138 19 -32 34 -60 34 -61 0 -2 -105 -6 -232 -9 -263 -6 -316 -15
-443 -77 -191 -93 -338 -272 -392 -480 -24 -91 -23 -263 1 -358 61 -241 245
-435 491 -520 l80 -27 1767 0 1767 0 27 21 c45 33 67 70 72 122 5 56 -10 91
-57 137 -27 25 -41 30 -96 33 l-64 4 -31 78 c-79 206 -78 457 2 670 l25 65
550 5 550 5 37 29 c66 50 84 132 46 205 -25 50 -74 80 -146 89 l-58 7 -28 72
c-79 205 -74 487 11 687 20 44 22 46 63 46 58 1 120 30 149 71 19 27 24 47 24
94 0 73 -27 118 -89 146 -39 17 -79 19 -689 19 l-649 0 36 48 c165 217 316
548 381 839 25 110 27 130 22 283 -6 182 -21 257 -81 399 -93 220 -275 406
-476 488 -196 79 -444 66 -645 -33 -94 -46 -100 -45 -115 19 -56 238 -197 415
-417 526 -77 38 -135 41 -183 8z m2330 -2914 c0 -5 -7 -33 -15 -63 -25 -90
-45 -239 -45 -335 0 -99 21 -258 45 -338 8 -28 15 -54 15 -59 0 -5 -690 -7
-1532 -6 l-1533 3 -57 28 c-88 43 -152 107 -195 195 -36 73 -38 80 -38 177 0
91 3 106 31 165 55 115 129 181 249 222 47 16 154 17 1563 18 831 0 1512 -3
1512 -7z m-984 -1155 c-38 -137 -50 -231 -50 -388 0 -162 4 -192 51 -387 l5
-23 -1473 0 c-916 0 -1497 4 -1534 10 -241 39 -397 286 -327 517 12 38 39 94
62 125 45 63 139 132 203 148 23 6 47 13 52 15 6 2 687 4 1514 4 l1503 1 -6
-22z"/>
</g>
</svg>
