<?xml version="1.0" standalone="no"?>
<!DOCTYPE svg PUBLIC "-//W3C//DTD SVG 20010904//EN"
 "http://www.w3.org/TR/2001/REC-SVG-20010904/DTD/svg10.dtd">
<svg version="1.0" xmlns="http://www.w3.org/2000/svg"
 width="700.000000pt" height="700.000000pt" viewBox="0 0 700.000000 700.000000"
 preserveAspectRatio="xMidYMid meet">
<metadata>
Created by potrace 1.14, written by Peter Selinger 2001-2017
</metadata>
<g transform="translate(0.000000,700.000000) scale(0.100000,-0.100000)"
fill="#000000" stroke="none">
<path d="M124 6220 c-45 -12 -85 -43 -104 -80 -20 -39 -20 -50 -18 -2364 l3
-2325 21 -27 c11 -15 33 -37 48 -48 27 -21 32 -21 1239 -23 667 -1 1246 -4
1289 -7 71 -6 250 -48 328 -77 146 -56 328 -177 424 -280 71 -77 114 -103 157
-94 18 4 58 35 102 79 170 171 453 309 697 342 19 2 46 7 60 9 14 3 81 5 150
4 1021 -6 2329 -2 2358 8 40 14 80 48 95 83 15 36 17 4652 2 4698 -15 46 -58
88 -102 99 -44 10 -2399 10 -2453 -1 -113 -22 -182 -48 -275 -99 -61 -35 -139
-90 -170 -122 -123 -126 -196 -254 -241 -425 -16 -60 -18 -173 -19 -1415 -1
-742 -5 -1365 -9 -1383 -11 -57 -56 -115 -104 -133 -13 -5 -58 -9 -100 -10
-119 -1 -160 28 -197 141 -18 52 -19 126 -20 1340 l-2 1285 -27 88 c-28 93
-69 183 -119 257 -40 61 -173 190 -244 237 -176 117 -413 197 -674 228 -19 2
-63 7 -99 11 -73 8 -1967 12 -1996 4z"/>
</g>
</svg>
